<svg width="11" height="10" viewBox="0 0 11 10" fill="none" xmlns="http://www.w3.org/2000/svg">
<g id="image" clip-path="url(#clip0_1_43)">
<g id="Group">
<g id="Group_2">
<path id="Vector" d="M10.8884 3.87472C10.8751 3.99305 10.8152 4.10155 10.7215 4.17695L8.39489 6.40769L8.94621 9.55812C8.9513 9.60003 8.95351 9.64223 8.95281 9.68444C8.95543 9.76418 8.93184 9.84263 8.88555 9.90816C8.84035 9.96938 8.7666 10.0038 8.68976 9.99966C8.59902 9.99701 8.51058 9.97095 8.43332 9.9241L5.5548 8.43596L2.67689 9.92351C2.59914 9.96929 2.511 9.99527 2.42045 9.99907C2.34177 10.0041 2.26584 9.96966 2.21866 9.90757C2.17248 9.84198 2.14891 9.76357 2.15139 9.68385C2.15295 9.64153 2.15716 9.59934 2.164 9.55752L2.71532 6.4071L0.382123 4.17754C0.292718 4.09933 0.235654 3.99157 0.221771 3.87472C0.221771 3.71927 0.341885 3.62266 0.582111 3.58488L3.79995 3.12504L5.24071 0.258551C5.32198 0.0861836 5.42668 0 5.5548 0C5.68293 0 5.78702 0.0861836 5.8671 0.258551L7.30846 3.12563L10.5263 3.58547C10.7665 3.62483 10.8866 3.72144 10.8866 3.87531L10.8884 3.87472Z" fill="#00AB55"/>
</g>
</g>
</g>
<defs>
<clipPath id="clip0_1_43">
<rect width="10.6667" height="10" fill="white" transform="translate(0.221771)"/>
</clipPath>
</defs>
</svg>
