<svg width="31" height="32" viewBox="0 0 31 32" fill="none" xmlns="http://www.w3.org/2000/svg">
<g id="Huge-icon/social/solid/instagram">
<g id="instagram">
<path id="Combo Shape" fill-rule="evenodd" clip-rule="evenodd" d="M9.42031 3.40625C5.93218 3.40625 3.10449 6.23394 3.10449 9.72207V22.3537C3.10449 25.8418 5.93218 28.6695 9.42031 28.6695H22.0519C25.5401 28.6695 28.3677 25.8418 28.3677 22.3537V9.72206C28.3677 6.23394 25.5401 3.40625 22.0519 3.40625H9.42031ZM23.3149 9.72164C24.0125 9.72164 24.5781 9.1561 24.5781 8.45848C24.5781 7.76085 24.0125 7.19531 23.3149 7.19531C22.6173 7.19531 22.0518 7.76085 22.0518 8.45848C22.0518 9.1561 22.6173 9.72164 23.3149 9.72164ZM22.0525 16.0346C22.0525 19.5227 19.2248 22.3504 15.7367 22.3504C12.2486 22.3504 9.4209 19.5227 9.4209 16.0346C9.4209 12.5464 12.2486 9.71875 15.7367 9.71875C19.2248 9.71875 22.0525 12.5464 22.0525 16.0346ZM15.7358 19.829C17.8287 19.829 19.5253 18.1324 19.5253 16.0395C19.5253 13.9466 17.8287 12.25 15.7358 12.25C13.6429 12.25 11.9463 13.9466 11.9463 16.0395C11.9463 18.1324 13.6429 19.829 15.7358 19.829Z" fill="#5B7700"/>
</g>
</g>
</svg>
