<svg width="31" height="32" viewBox="0 0 31 32" fill="none" xmlns="http://www.w3.org/2000/svg">
<g id="Huge-icon/social/solid/twitter">
<g id="twitter">
<path id="Vector" d="M19.4675 5.9375C16.81 5.9375 14.6557 8.19965 14.6557 10.9902C14.6557 11.4118 14.7049 11.8214 14.7976 12.213C12.2423 12.213 8.39346 11.6964 5.17908 8.47596C4.75165 8.04773 3.96347 8.33404 3.99312 8.93836C4.46949 18.6483 8.62793 21.4806 10.7694 21.6569C9.38657 23.0226 7.37782 24.1007 5.3565 24.5845C4.82303 24.7122 4.69125 25.2962 5.21289 25.4659C6.65925 25.9363 8.72949 26.1175 9.84383 26.1481C17.727 26.1481 24.1343 19.5129 24.2769 11.2709C25.3119 10.5979 25.9749 9.13646 26.3474 8.10118C26.4381 7.84904 26.0249 7.55527 25.7775 7.65826C25.0044 7.98013 24.0228 8.05644 23.1867 7.784C22.3042 6.65658 20.9658 5.9375 19.4675 5.9375Z" fill="#5B7700"/>
</g>
</g>
</svg>
